<svg xmlns="http://www.w3.org/2000/svg" viewBox="0 0 160 160" width="11" height="11"><defs><clipPath clipPathUnits="userSpaceOnUse" id="cp1"><path d="M0 0L160 0L160 160L0 160Z" /></clipPath></defs><style>tspan { white-space:pre }.shp0 { fill: #f0d8d9 } </style><g clip-path="url(#cp1)"><path class="shp0" d="M92.28 93.28C76.45 109.12 58.11 124.25 50.87 117.01C40.49 106.63 34.09 97.59 11.22 115.98C-11.66 134.37 5.91 146.62 15.96 156.68C27.56 168.28 70.81 157.29 113.55 114.55C156.28 71.81 167.28 28.57 155.67 16.96C145.62 6.91 133.36 -10.66 114.98 12.22C96.59 35.09 105.63 41.49 116.01 51.87C123.25 59.11 108.12 77.45 92.28 93.28Z" /></g></svg>